<?xml version="1.0" encoding="iso-8859-1"?>
<!-- Generator: Adobe Illustrator 16.0.0, SVG Export Plug-In . SVG Version: 6.00 Build 0)  -->
<!DOCTYPE svg PUBLIC "-//W3C//DTD SVG 1.1//EN" "http://www.w3.org/Graphics/SVG/1.1/DTD/svg11.dtd">
<svg version="1.1" id="Capa_1" xmlns="http://www.w3.org/2000/svg" xmlns:xlink="http://www.w3.org/1999/xlink" x="0px" y="0px"
	 width="31.891px" height="31.891px" viewBox="0 0 31.891 31.891" style="enable-background:new 0 0 31.891 31.891;"
	 xml:space="preserve">
<g>
	<g>
		<path d="M9.991,10.653V4.214H8.016v6.439H9.991z M8.287,4.484h1.435v5.899H8.287V4.484z"/>
		<rect x="9.093" y="4.981" width="0.276" height="3.274"/>
		<rect x="8.636" y="4.975" width="0.277" height="3.274"/>
		<path d="M8.577,19.641v-6.441H6.601v6.441H8.577z M6.872,13.47h1.435v3.567H6.872V13.47z M7.14,17.796v-0.257h0.992v0.257H7.14z
			 M8.131,18.03v0.257H7.14V18.03H8.131z M6.872,18.643h1.435v0.728H6.872V18.643z"/>
		<rect x="7.134" y="14.175" width="1.001" height="0.277"/>
		<path d="M10.98,13.199H9.004v0.955v0.739v4.748h1.976V13.199z M10.71,19.369H9.275v-0.742h1.435V19.369z M10.491,17.801v0.277h-1
			v-0.277H10.491z M9.494,17.621v-0.278h1.001v0.278H9.494z M10.71,16.795H9.275v-1.902h1.435V16.795z M9.491,14.658V14.38h1v0.278
			H9.491z M10.71,14.153H9.275V13.47h1.435V14.153z"/>
		<path d="M15.63,13.199h-1.977v6.441h1.977V13.199z M15.359,19.369h-1.434V13.47h1.434V19.369z"/>
		<rect x="14.732" y="13.968" width="0.277" height="3.273"/>
		<rect x="14.274" y="13.961" width="0.278" height="3.273"/>
		<path d="M13.304,13.199h-1.976v6.441h1.976V13.199z M13.036,19.369H11.6V13.47h1.436V19.369z"/>
		<rect x="11.829" y="14.286" width="1.002" height="0.278"/>
		<rect x="11.825" y="14.743" width="1.002" height="0.277"/>
		<rect x="11.825" y="17.782" width="1.002" height="0.278"/>
		<rect x="11.829" y="18.275" width="1.002" height="0.275"/>
		<path d="M12.588,28.408l2.03-6.111l-1.874-0.623l-0.301,0.907l-0.233,0.701l-1.497,4.504L12.588,28.408z M12.917,22.018
			l1.361,0.451l-0.215,0.65L12.7,22.665L12.917,22.018z M13.783,23.266l-0.087,0.264l-0.95-0.315l0.087-0.264L13.783,23.266z
			 M12.466,23.368l1.363,0.452l-0.6,1.805l-1.362-0.452L12.466,23.368z M11.9,25.762l0.95,0.316l-0.087,0.262l-0.95-0.314
			L11.9,25.762z M11.754,26.193l0.95,0.316l-0.087,0.264l-0.95-0.315L11.754,26.193z M12.65,27.363l-0.234,0.703l-1.361-0.451
			l0.233-0.704L12.65,27.363z"/>
		<path d="M16.595,21.928h-1.977v6.441h1.977V21.928z M16.325,28.098h-1.435v-5.898h1.435V28.098z"/>
		<rect x="15.119" y="23.018" width="1.002" height="0.274"/>
		<rect x="15.116" y="23.473" width="1.002" height="0.277"/>
		<rect x="15.116" y="26.512" width="1.002" height="0.277"/>
		<rect x="15.119" y="27.004" width="1.002" height="0.277"/>
		<path d="M12.351,4.214h-1.976v6.439h1.976V4.214z M12.081,10.383h-1.436V4.484h1.436V10.383z"/>
		<rect x="10.874" y="5.301" width="1.001" height="0.277"/>
		<rect x="10.873" y="8.797" width="1" height="0.277"/>
		<rect x="10.874" y="9.289" width="1.001" height="0.276"/>
		<path d="M14.738,4.214h-1.976v6.439h1.976V4.214z M14.468,10.383h-1.435V9.655h1.435V10.383z M14.293,9.044v0.258h-0.991V9.044
			H14.293z M13.301,8.81V8.553h0.991V8.81H13.301z M14.468,8.052h-1.435V4.484h1.435V8.052z"/>
		<rect x="13.296" y="5.189" width="1.002" height="0.278"/>
		<path d="M17.096,4.214h-1.976v0.955v0.739v4.746h1.976V4.214z M16.827,10.383h-1.435V9.641h1.435V10.383z M16.608,8.814v0.277
			h-1.001V8.814H16.608z M15.607,8.635V8.357h1.002v0.277L15.607,8.635L15.607,8.635z M16.827,7.809h-1.435V5.907h1.435V7.809z
			 M15.606,5.673V5.395h1.001v0.278H15.606z M16.827,5.168h-1.435V4.484h1.435V5.168z"/>
		<path d="M18.737,2.028h-1.213H5.88L1.752,0l0.019,14.532c-0.007,0-0.012-0.001-0.019-0.001c-0.783-0.001-1.416,0.632-1.416,1.414
			s0.633,1.417,1.416,1.417c0.008,0,0.015-0.002,0.022-0.002l0.018,14.531l4.178-1.755h0.809v0.675h1.163v-0.675h7.812v0.675h1.163
			v-0.675h0.606h1.213h0.858v0.675h1.164v-0.675h7.812v0.675h1.164v-0.675h1.819V2.028H18.737z M17.524,28.922H5.968l-0.011-8.236
			h11.566V28.922z M17.524,20.078H5.957l-0.012-8.57h11.58V20.078z M17.524,10.901H5.943L5.933,3.242h11.591V10.901z M20.321,16.83
			c-0.198,0.201-0.473,0.327-0.778,0.327c-0.603,0-1.09-0.487-1.09-1.091c0-0.602,0.487-1.09,1.09-1.09
			c0.463,0,0.856,0.292,1.015,0.7c0.053,0.125,0.082,0.262,0.082,0.406C20.641,16.376,20.518,16.641,20.321,16.83z"/>
	</g>
</g>
<g>
</g>
<g>
</g>
<g>
</g>
<g>
</g>
<g>
</g>
<g>
</g>
<g>
</g>
<g>
</g>
<g>
</g>
<g>
</g>
<g>
</g>
<g>
</g>
<g>
</g>
<g>
</g>
<g>
</g>
</svg>
