<?xml version="1.0" encoding="iso-8859-1"?>
<!-- Generator: Adobe Illustrator 16.0.0, SVG Export Plug-In . SVG Version: 6.00 Build 0)  -->
<!DOCTYPE svg PUBLIC "-//W3C//DTD SVG 1.1//EN" "http://www.w3.org/Graphics/SVG/1.1/DTD/svg11.dtd">
<svg version="1.1" id="Capa_1" xmlns="http://www.w3.org/2000/svg" xmlns:xlink="http://www.w3.org/1999/xlink" x="0px" y="0px"
	 width="27.85px" height="27.849px" viewBox="0 0 27.85 27.849" style="enable-background:new 0 0 27.85 27.849;"
	 xml:space="preserve">
<g>
	<g>
		<polygon points="0,18.303 0.015,18.303 0.015,24.281 0,24.281 0,25.01 26.534,25.01 26.534,24.281 24.711,24.281 24.711,23.954 
			1.867,23.954 1.867,23.715 1.836,23.715 1.836,23.576 24.711,23.576 24.711,23.269 1.847,23.269 1.847,23.156 1.836,23.156 
			1.836,23.015 1.847,23.015 1.847,22.966 24.711,22.966 24.711,22.543 1.806,22.543 1.806,22.466 1.793,22.466 1.793,22.326 
			1.806,22.326 1.806,22.24 24.711,22.24 24.711,21.859 1.787,21.859 1.787,21.556 24.711,21.556 24.711,21.193 1.787,21.193 
			1.787,20.891 24.711,20.891 24.711,20.507 1.827,20.507 1.827,20.206 24.711,20.206 24.711,19.822 1.806,19.822 1.806,19.521 
			24.711,19.521 24.711,19.158 1.806,19.158 1.806,18.855 24.711,18.855 24.711,18.303 26.534,18.303 26.534,17.572 0,17.572 		"/>
		<polygon points="21.95,16.242 21.95,16.256 4.079,16.256 4.079,16.689 2.671,16.689 2.671,17.15 23.174,17.15 23.174,16.689 
			23.163,16.689 23.163,12.928 23.174,12.928 23.174,12.468 12.443,12.468 2.671,12.468 2.671,12.928 4.079,12.928 4.079,13.254 
			21.969,13.254 21.969,13.556 4.079,13.556 4.079,13.919 21.969,13.919 21.969,14.221 4.079,14.221 4.079,14.604 21.93,14.604 
			21.93,14.771 21.955,14.771 21.955,14.908 4.079,14.908 4.079,15.29 21.95,15.29 21.95,15.417 21.955,15.417 21.955,15.553 
			21.95,15.553 21.95,15.591 4.079,15.591 4.079,15.955 21.95,15.955 21.95,16.105 21.955,16.105 21.955,16.242 		"/>
		<polygon points="27.85,4.737 27.85,2.839 0.422,2.839 0.422,4.737 4.581,4.737 4.581,12.035 23.128,12.035 23.128,4.737 
			25.152,4.737 25.152,9.122 24.141,9.122 24.141,12.831 27.288,12.831 27.288,9.122 26.613,9.122 26.613,4.737 		"/>
	</g>
</g>
<g>
</g>
<g>
</g>
<g>
</g>
<g>
</g>
<g>
</g>
<g>
</g>
<g>
</g>
<g>
</g>
<g>
</g>
<g>
</g>
<g>
</g>
<g>
</g>
<g>
</g>
<g>
</g>
<g>
</g>
</svg>
