<?xml version="1.0" encoding="iso-8859-1"?>
<!-- Generator: Adobe Illustrator 19.0.0, SVG Export Plug-In . SVG Version: 6.00 Build 0)  -->
<svg version="1.1" id="Layer_1" xmlns="http://www.w3.org/2000/svg" xmlns:xlink="http://www.w3.org/1999/xlink" x="0px" y="0px"
	 viewBox="0 0 512 512" style="enable-background:new 0 0 512 512;" xml:space="preserve">
<g>
	<g>
		<path d="M291.649,178.114H136.751c-4.651,0-8.421,3.771-8.421,8.421c0,4.651,3.771,8.421,8.421,8.421h154.898
			c4.651,0,8.421-3.771,8.421-8.421C300.07,181.885,296.3,178.114,291.649,178.114z"/>
	</g>
</g>
<g>
	<g>
		<path d="M291.649,224.43H136.751c-4.651,0-8.421,3.771-8.421,8.421c0,4.651,3.771,8.421,8.421,8.421h154.898
			c4.651,0,8.421-3.771,8.421-8.421C300.07,228.2,296.3,224.43,291.649,224.43z"/>
	</g>
</g>
<g>
	<g>
		<path d="M511.469,118.421c-0.64-3.415-3.311-6.085-6.725-6.726c-24.275-4.549-69.786,20.146-139.12,75.509
			c-6.956,5.555-13.929,11.253-20.839,16.998v-74.876h70.111c4.651,0,8.421-3.771,8.421-8.421V92.448
			c0-27.695-22.532-50.227-50.227-50.227H128.767c-24.896,0-45.15,20.254-45.15,45.15V382.67H8.421
			c-4.651,0-8.421,3.771-8.421,8.421v28.458c0,27.697,22.533,50.23,50.23,50.23h249.414c24.897,0,45.151-20.255,45.151-45.152
			L344.785,362c23.795-25.138,59.741-65.093,91.175-104.458C491.322,188.209,516.022,142.703,511.469,118.421z M83.617,419.551
			c0,18.408-14.976,33.385-33.384,33.385H50.23c-18.409,0-33.387-14.977-33.387-33.387v-20.036h66.774V419.551z M373.09,59.064
			c18.408,0,33.385,14.977,33.385,33.385v20.035h-227.48V92.448c0-12.803-4.817-24.504-12.731-33.385H373.09z M299.644,452.936
			H87.716c7.918-8.882,12.743-20.577,12.743-33.385V87.371c0-15.609,12.698-28.307,28.307-28.307
			c18.408,0,33.385,14.977,33.385,33.385v28.456c0,4.651,3.771,8.421,8.421,8.421h157.369v89.079
			c-21.987,18.795-42.511,37.299-58.646,52.338H136.753c-4.651,0-8.421,3.771-8.421,8.421c0,4.651,3.771,8.421,8.421,8.421h114.794
			c-2.676,2.596-5.084,4.962-7.159,7.037c-6.867,6.867-11.992,14.512-15.79,22.432h-91.845c-4.651,0-8.421,3.771-8.421,8.421
			c0,4.651,3.771,8.421,8.421,8.421h85.695c-2.717,10.291-3.719,20.463-3.84,29.479h-81.855c-4.651,0-8.421,3.771-8.421,8.421
			s3.771,8.421,8.421,8.421h82.604c0.427,4.194,0.961,7.689,1.419,10.257l-35.651,35.651c-3.289,3.289-3.289,8.621,0,11.909
			c1.644,1.644,3.8,2.467,5.954,2.467c2.155,0,4.311-0.822,5.955-2.467l35.661-35.661c5.185,0.912,14.196,2.144,25.082,2.144
			c1.902,0,3.865-0.038,5.871-0.121c26.474-1.103,48.676-9.772,64.295-25.06l0.007,45.288
			C327.952,440.237,315.252,452.936,299.644,452.936z M316.631,366.866c-12.701,12.701-30.612,19.66-53.24,20.686
			c-5.712,0.258-11.024,0.084-15.604-0.266l214.475-214.475c3.289-3.289,3.289-8.621,0-11.909c-3.289-3.289-8.621-3.289-11.909,0
			l-214.48,214.48c-1.4-18.3,0.053-48.476,20.425-68.848c20.106-20.106,70.419-66.708,119.835-106.167
			c26.952-21.522,89.297-68.967,118.907-72.242c-3.275,29.61-50.72,91.955-72.242,118.908
			C383.339,296.447,336.737,346.76,316.631,366.866z"/>
	</g>
</g>
<g>
</g>
<g>
</g>
<g>
</g>
<g>
</g>
<g>
</g>
<g>
</g>
<g>
</g>
<g>
</g>
<g>
</g>
<g>
</g>
<g>
</g>
<g>
</g>
<g>
</g>
<g>
</g>
<g>
</g>
</svg>
